<svg xmlns="http://www.w3.org/2000/svg" width="512" height="512" id="rupee">
  <defs>
    <linearGradient id="a" x1=".5" x2=".5" y2="1" gradientUnits="objectBoundingBox">
      <stop offset="0" stop-color="#ffb508"></stop>
      <stop offset="1" stop-color="#fc2a02"></stop>
    </linearGradient>
  </defs>
  <g transform="translate(-13674 -765)">
    <circle cx="256" cy="256" r="256" fill="url(#a)" transform="translate(13674 765)"></circle>
    <path fill="#fff" d="M14004.364 955.958a5.264 5.264 0 0 0-3.888-1.521h-28.921a58.544 58.544 0 0 0-10.826-24.355h39.406a5.2 5.2 0 0 0 5.409-4.982 5.09 5.09 0 0 0 0-.428v-17.255a5.2 5.2 0 0 0-4.979-5.412 5.138 5.138 0 0 0-.43 0h-140.718a5.208 5.208 0 0 0-5.412 5 4.81 4.81 0 0 0 0 .416v22.494a5.487 5.487 0 0 0 5.412 5.412h24.525q35.685 0 45.326 19.111h-69.851a5.208 5.208 0 0 0-5.412 5 4.81 4.81 0 0 0 0 .416v17.253a5.207 5.207 0 0 0 5 5.406c.137.006.273.005.41 0h72.222q-3.721 13.874-17.338 21.143t-35.941 7.277h-18.941a5.487 5.487 0 0 0-5.412 5.404v21.482a5.059 5.059 0 0 0 1.521 3.721q32.472 34.5 84.229 96.576a4.987 4.987 0 0 0 4.229 2.03h32.98a4.905 4.905 0 0 0 4.906-3.046 4.621 4.621 0 0 0-.677-5.751q-49.382-60.552-77.631-90.656 28.754-3.383 46.682-18.6t21.818-39.579h28.414a5.212 5.212 0 0 0 5.413-5 5.496 5.496 0 0 0 0-.406V959.85a5.27 5.27 0 0 0-1.525-3.892Z"></path>
  </g>
</svg>
